<?xml version="1.0" standalone="no"?>
<svg xmlns="http://www.w3.org/2000/svg"
     version="1.1"
     width="16" height="16"
     viewBox="0 0 16 16">
    <defs>
        <style type="text/css">
            <![CDATA[
                .fgbg {
                    stroke: #ddd;
                    stroke-width: 1px;
                    fill: #eee;
                }
                .xfg {
                    fill: #999;
                }
            ]]>
        </style>
    </defs>
    <path class="fgbg" d="m1.5,3.5 c0,-2 0,-2 2,-2 h9 c2,0 2,0 2,2 v9 c0,2 0,2 -2,2 h-9 c-2,0 -2,0 -2,-2 z "/>
    <path class="xfg" d="M 14,0 C 10.9,2.4 8.6,5.5 6.8,9 4.8,7.3 4,6.6 2,5.2 L 0,7.8 C 3.1,10 5,11.3 7.4,14 9.5,9.5 12.7,6 16,2.5 L 14,0 z"/>
</svg>
