<?xml version="1.0" encoding="UTF-8" standalone="no"?>
<svg
   xmlns="http://www.w3.org/2000/svg"
   version="1.1"
   width="64"
   height="64">
  <g>
    <path
       d="M 32.5,4 C 17.312169,4 5,16.312169 5,31.5 5,46.687831 17.312169,59 32.5,59 47.687831,59 60,46.687831 60,31.5 60,16.312169 47.687831,4 32.5,4 z m -0.25,6.65625 c 0.939708,3.9e-5 1.773041,0.303452 2.5,0.90625 0.72694,0.602875 1.093739,1.503805 1.09375,2.65625 -1.1e-5,1.117056 -0.353291,1.964351 -1.0625,2.59375 -0.709229,0.629465 -1.556081,0.968782 -2.53125,0.96875 -1.010645,3.2e-5 -1.87567,-0.3169 -2.59375,-0.9375 -0.718089,-0.620534 -1.093753,-1.490214 -1.09375,-2.625 -3e-6,-1.028332 0.38918,-1.897568 1.125,-2.5625 0.73581,-0.664854 1.587316,-0.999961 2.5625,-1 z m -0.09375,10.5 c 1.063821,2.9e-5 1.933501,0.366828 2.625,1.09375 0.691478,0.726977 1.062489,1.73695 1.0625,3.03125 l 0,20.96875 c -1.1e-5,1.453903 -0.371022,2.567821 -1.0625,3.3125 -0.691499,0.744681 -1.561179,1.093749 -2.625,1.09375 -1.063836,-10e-7 -1.928862,-0.362589 -2.59375,-1.125 -0.664898,-0.76241 -1.000003,-1.862808 -1,-3.28125 l 0,-20.78125 c -3e-6,-1.436144 0.335102,-2.491773 1,-3.21875 0.664888,-0.726922 1.529914,-1.093721 2.59375,-1.09375 z"
       style="fill:#004494;stroke-width:2;stroke-miterlimit:4" />
  </g>
</svg>
