<?xml version="1.0" encoding="UTF-8" standalone="no"?>
<svg
   xmlns="http://www.w3.org/2000/svg"
   version="1.1"
   width="64"
   height="64">
  <g>
    <path
       d="M 32.5,4.0000005 C 17.312169,4.0000005 5,16.31217 5,31.500001 5,46.687832 17.312169,59 32.5,59 47.687836,59 59.999996,46.687832 59.999996,31.500001 59.999996,16.31217 47.687836,4.0000005 32.5,4.0000005 z m 0.3125,7.2812505 c 2.553922,4e-5 4.794893,0.463973 6.75,1.40625 1.955061,0.942353 3.465614,2.223353 4.53125,3.84375 1.065586,1.620463 1.624976,3.379035 1.624996,5.28125 -2e-5,1.497164 -0.32986,2.810269 -0.9375,3.9375 -0.607685,1.127281 -1.319637,2.08725 -2.156246,2.90625 -0.836662,0.819044 -2.333576,2.218797 -4.5,4.15625 -0.598875,0.546032 -1.076445,1.023602 -1.4375,1.4375 -0.361094,0.413931 -0.636384,0.781554 -0.8125,1.125 -0.176153,0.343476 -0.309395,0.687806 -0.40625,1.03125 -0.09689,0.343476 -0.243771,0.949459 -0.4375,1.8125 -0.334671,1.831805 -1.394929,2.750009 -3.15625,2.75 -0.915911,9e-6 -1.687237,-0.276137 -2.3125,-0.875 -0.625287,-0.598844 -0.937513,-1.507393 -0.9375,-2.6875 -1.3e-5,-1.479506 0.22954,-2.760511 0.6875,-3.84375 0.457935,-1.083206 1.08636,-2.024709 1.84375,-2.84375 0.757361,-0.819003 1.776707,-1.810221 3.0625,-2.9375 1.127238,-0.986327 1.935499,-1.716744 2.4375,-2.21875 0.501961,-0.501955 0.937768,-1.071005 1.28125,-1.6875 0.343439,-0.616441 0.499978,-1.309073 0.5,-2.03125 -2.2e-5,-1.409041 -0.514524,-2.562483 -1.5625,-3.53125 -1.048015,-0.968704 -2.406859,-1.468715 -4.0625,-1.46875 -1.937488,3.5e-5 -3.365365,0.49124 -4.28125,1.46875 -0.915906,0.977573 -1.678429,2.410284 -2.3125,4.3125 -0.598864,1.990339 -1.764237,2.968775 -3.4375,2.96875 -0.986356,2.5e-5 -1.821888,-0.304246 -2.5,-1 -0.678117,-0.695702 -1.000002,-1.439758 -1,-2.25 -2e-6,-1.673242 0.550581,-3.407662 1.625,-5.125 1.074413,-1.717269 2.626726,-3.122707 4.6875,-4.25 2.060755,-1.127218 4.471048,-1.68746 7.21875,-1.6875 z m -0.625,32.09375 c 1.109626,9e-6 2.055107,0.398881 2.8125,1.15625 0.757356,0.757387 1.124982,1.671614 1.125,2.78125 -1.8e-5,1.232942 -0.394916,2.201716 -1.1875,2.90625 -0.79262,0.704533 -1.710827,1.0625 -2.75,1.0625 -1.074432,0 -2.011105,-0.366767 -2.8125,-1.0625 -0.801422,-0.695725 -1.218761,-1.655699 -1.21875,-2.90625 -1.1e-5,-1.109636 0.381249,-2.023863 1.15625,-2.78125 0.774976,-0.757369 1.747728,-1.156241 2.875,-1.15625 z"
       style="fill:#1e7600;stroke-width:2;stroke-miterlimit:4" />
  </g>
</svg>
