<?xml version="1.0" encoding="UTF-8" standalone="no"?>
<svg
   xmlns="http://www.w3.org/2000/svg"
   version="1.1"
   width="64"
   height="64">
  <g>
    <path
       d="M 33.10018,3.78125 C 31.819731,3.78325 30.545944,4.61429 29.78768,6.1875 21.502496,22.078229 13.001386,38.050363 5.50643,53.625 4.265842,56.688495 5.330785,58.95102 8.41268,59 l 48.5625,0 c 4.30843,-0.04758 4.99325,-2.748252 3.5625,-5.46875 l -24.0625,-47.25 c -0.81243,-1.6876755 -2.094551,-2.5019966 -3.375,-2.5 z m 0.03125,10.125 c 1.51474,4e-5 2.52045,0.545792 3.03125,1.59375 0.51077,1.048032 0.78123,2.558586 0.78125,4.53125 -2e-5,1.162516 -0.06426,2.33357 -0.1875,3.53125 l -1.15625,13.03125 c -0.1233,1.549992 -0.37615,2.734685 -0.78125,3.5625 -0.405117,0.827841 -1.0665,1.250012 -2,1.25 -0.951131,1.2e-5 -1.630126,-0.417329 -2,-1.21875 -0.369887,-0.801394 -0.622735,-2.018189 -0.78125,-3.65625 L 29.19393,23.875 c -0.158527,-2.465844 -0.250004,-4.238049 -0.25,-5.3125 -4e-6,-1.461874 0.390063,-2.58719 1.15625,-3.40625 0.766175,-0.818984 1.780692,-1.24996 3.03125,-1.25 z m -0.21875,32.125 c 1.109634,6e-6 2.05995,0.358825 2.84375,1.125 0.78379,0.766189 1.18748,1.720475 1.1875,2.8125 -2e-5,1.232939 -0.39491,2.201715 -1.1875,2.90625 -0.79261,0.704535 -1.724456,1.031249 -2.78125,1.03125 -1.074424,-10e-7 -2.011098,-0.335521 -2.8125,-1.03125 -0.801415,-0.695727 -1.218754,-1.655697 -1.21875,-2.90625 -4e-6,-1.092025 0.390063,-2.046311 1.15625,-2.8125 0.766175,-0.766175 1.70285,-1.124994 2.8125,-1.125 z"
       style="fill:#e85412;stroke:none" />
  </g>
</svg>
